<svg version="1.1" id="Layer_1" xmlns="http://www.w3.org/2000/svg" xmlns:xlink="http://www.w3.org/1999/xlink" x="0px" y="0px"
	 width="100%" viewBox="0 0 500 500" enable-background="new 0 0 500 500" xml:space="preserve">
<path fill="#FAFAFA" opacity="1.000000" stroke="none" 
	d="
M328.000000,501.000000 
	C218.666687,501.000000 109.833382,501.000000 1.000058,501.000000 
	C1.000039,334.333405 1.000039,167.666794 1.000019,1.000148 
	C167.666565,1.000099 334.333130,1.000099 500.999756,1.000049 
	C500.999847,167.666519 500.999847,334.333038 500.999939,500.999786 
	C443.500000,501.000000 386.000000,501.000000 328.000000,501.000000 
M358.556061,115.801987 
	C348.261810,111.597267 337.416595,110.157074 326.442078,110.063896 
	C302.780060,109.862984 279.114258,109.874458 255.451614,110.034859 
	C226.663071,110.229996 197.867035,110.335815 169.092209,111.130768 
	C153.021454,111.574760 139.099121,118.335411 127.885742,129.763016 
	C115.793518,142.086258 109.157524,157.202942 109.083344,174.536133 
	C108.858704,227.028671 108.981567,279.522827 109.042885,332.016235 
	C109.047508,335.973724 109.479454,339.950195 109.975906,343.884613 
	C114.134438,376.841217 141.808533,399.680634 174.713821,399.906189 
	C225.371841,400.253448 276.034027,400.026672 326.694336,399.954315 
	C331.984680,399.946777 337.314667,399.645905 342.556793,398.954498 
	C361.261810,396.487335 375.657776,386.735382 386.689148,371.816681 
	C396.198700,358.956055 398.747833,343.787872 398.862213,328.432892 
	C399.227203,279.441650 399.034393,230.445938 398.941132,181.452179 
	C398.931702,176.504059 398.484039,171.497711 397.646484,166.620270 
	C393.619934,143.172134 381.093994,126.075996 358.556061,115.801987 
z"/>
<path fill="#F2F2F2" opacity="1.000000" stroke="none" 
	d="
M358.905060,115.958534 
	C381.093994,126.075996 393.619934,143.172134 397.646484,166.620270 
	C398.484039,171.497711 398.931702,176.504059 398.941132,181.452179 
	C399.034393,230.445938 399.227203,279.441650 398.862213,328.432892 
	C398.747833,343.787872 396.198700,358.956055 386.689148,371.816681 
	C375.657776,386.735382 361.261810,396.487335 342.556793,398.954498 
	C337.314667,399.645905 331.984680,399.946777 326.694336,399.954315 
	C276.034027,400.026672 225.371841,400.253448 174.713821,399.906189 
	C141.808533,399.680634 114.134438,376.841217 109.975906,343.884613 
	C109.479454,339.950195 109.047508,335.973724 109.042885,332.016235 
	C108.981567,279.522827 108.858704,227.028671 109.083344,174.536133 
	C109.157524,157.202942 115.793518,142.086258 127.885742,129.763016 
	C139.099121,118.335411 153.021454,111.574760 169.092209,111.130768 
	C197.867035,110.335815 226.663071,110.229996 255.451614,110.034859 
	C279.114258,109.874458 302.780060,109.862984 326.442078,110.063896 
	C337.416595,110.157074 348.261810,111.597267 358.905060,115.958534 
M118.075249,348.119873 
	C117.858101,348.998596 117.244591,350.007294 117.483650,350.736450 
	C120.726646,360.627777 125.125839,369.920563 132.778778,377.231628 
	C144.781219,388.697754 159.425156,393.878479 175.773285,393.940643 
	C220.271637,394.109833 264.771210,394.057983 309.269958,393.953796 
	C319.394867,393.930115 329.536835,393.621307 339.639160,392.958618 
	C368.704315,391.052002 391.752838,365.916931 391.916931,336.295502 
	C392.211395,283.131653 391.908356,229.964767 392.056488,176.799713 
	C392.100281,161.085785 387.189514,147.473251 376.441406,136.075577 
	C374.527863,134.046371 371.758301,132.824387 368.824585,130.938766 
	C357.878845,121.208458 345.115448,116.697685 330.443024,116.779503 
	C298.458221,116.957848 266.471710,116.833084 234.485886,116.834114 
	C213.162018,116.834801 191.832443,116.535583 170.516022,116.935249 
	C152.780487,117.267769 138.062347,124.030846 127.036629,138.607452 
	C119.521942,148.542282 116.790390,159.509323 116.803780,171.621597 
	C116.861244,223.598480 116.753838,275.575684 116.912842,327.552124 
	C116.933556,334.320251 118.151978,341.084686 118.075249,348.119873 
z"/>
<path fill="#19161D" opacity="1.000000" stroke="none" 
	d="
M118.815636,347.850830 
	C118.151978,341.084686 116.933556,334.320251 116.912842,327.552124 
	C116.753838,275.575684 116.861244,223.598480 116.803780,171.621597 
	C116.790390,159.509323 119.521942,148.542282 127.036629,138.607452 
	C138.062347,124.030846 152.780487,117.267769 170.516022,116.935249 
	C191.832443,116.535583 213.162018,116.834801 234.485886,116.834114 
	C266.471710,116.833084 298.458221,116.957848 330.443024,116.779503 
	C345.115448,116.697685 357.878845,121.208458 369.280609,131.388702 
	C380.934631,142.976440 386.309326,156.394379 386.272644,172.234283 
	C386.155426,222.861664 386.275879,273.489563 386.178070,324.117035 
	C386.164612,331.081635 385.435608,338.044830 384.856018,345.306580 
	C384.435211,346.734863 384.196228,347.865204 383.745911,349.268494 
	C383.427948,349.982788 383.321320,350.424164 383.036133,351.126862 
	C374.291870,371.906067 358.810516,383.310272 336.450500,386.204285 
	C278.663422,386.137024 221.335403,386.120148 163.652740,385.963928 
	C161.531052,385.560211 159.764023,385.295837 157.665314,384.861603 
	C138.000137,379.201233 125.443001,366.625885 118.815636,347.850830 
M354.064819,315.681030 
	C350.475037,315.681030 346.885254,315.681030 343.295471,315.681030 
	C343.297821,316.215118 343.300140,316.749237 343.302490,317.283325 
	C347.201477,317.283325 351.100494,317.283325 355.071747,318.172394 
	C355.071747,322.039856 355.071747,325.907349 355.071747,329.774811 
	C355.718964,329.738281 356.366211,329.701782 357.013428,329.665283 
	C357.013428,325.594177 357.013428,321.523071 357.916046,317.222931 
	C361.696259,317.222931 365.476471,317.222931 369.256683,317.222931 
	C369.250916,316.627289 369.245148,316.031616 369.239380,315.435974 
	C365.169067,315.435974 361.098724,315.435974 357.049164,314.578094 
	C357.049164,310.797974 357.049164,307.017883 357.049164,303.237762 
	C356.362152,303.235535 355.675110,303.233337 354.988098,303.231110 
	C354.988098,307.341187 354.988098,311.451233 354.064819,315.681030 
M328.943024,290.281464 
	C328.897369,290.047455 328.851685,289.813446 329.240814,289.085052 
	C356.639923,274.151093 367.963104,245.053757 359.895660,216.638596 
	C361.020416,214.811447 362.252960,213.041214 363.252838,211.148102 
	C370.809814,196.839752 367.288330,182.280090 353.874207,173.275940 
	C347.500122,171.122009 341.270935,167.985214 334.721680,167.019806 
	C321.301605,165.041595 308.408661,168.608246 294.974243,173.031433 
	C282.103027,170.495255 269.196716,168.123138 256.369324,165.381912 
	C239.897263,161.861786 223.483765,158.412827 206.523361,161.978622 
	C186.143646,166.263290 172.765335,178.574173 169.429550,196.905792 
	C168.424942,202.426514 168.506882,208.144974 167.888870,213.423050 
	C167.764175,213.470505 167.639496,213.517944 167.514801,213.565399 
	C167.597168,213.669830 167.669662,213.845688 167.764648,213.858795 
	C167.861450,213.872177 167.980377,213.725525 167.996933,214.082764 
	C167.996933,214.082764 168.044891,214.523804 167.343750,214.779541 
	C137.971771,233.355179 130.822876,272.907135 151.803070,300.679901 
	C150.390350,303.498047 148.778229,306.235352 147.597702,309.147644 
	C140.624512,326.349670 147.851456,342.140564 165.393173,348.281281 
	C173.811096,351.228058 182.583527,351.850739 190.939423,349.323059 
	C202.816238,345.730286 214.329727,340.936493 226.678192,336.979767 
	C238.068619,340.754425 249.459061,344.529083 261.437866,348.844086 
	C265.602509,349.270142 269.767120,349.696228 274.679535,350.426971 
	C308.851807,353.017639 331.779755,331.258118 328.985718,298.125977 
	C328.940735,295.747559 328.895752,293.369141 328.943024,290.281464 
M138.049026,196.277847 
	C137.533310,190.730621 143.119751,194.951065 144.660019,192.098328 
	C142.392578,191.850632 140.334900,191.625839 138.353424,191.409378 
	C138.091309,189.194107 137.867035,187.298676 137.642776,185.403244 
	C137.345993,185.434601 137.049225,185.465958 136.752457,185.497314 
	C136.489685,187.515808 136.226913,189.534302 135.976288,191.459549 
	C133.745499,191.715607 131.901031,191.927307 130.056580,192.139023 
	C130.063339,192.400101 130.070099,192.661163 130.076859,192.922241 
	C132.086731,193.167923 134.096588,193.413589 136.015305,193.648117 
	C136.351624,195.950958 136.627808,197.842148 136.904007,199.733322 
	C137.212036,199.685013 137.520081,199.636703 137.828110,199.588394 
	C137.900909,198.774948 137.973709,197.961502 138.049026,196.277847 
M286.294434,140.245285 
	C286.099884,139.257767 285.905365,138.270264 285.710815,137.282761 
	C285.503418,137.309219 285.296051,137.335678 285.088684,137.362137 
	C284.908600,139.298874 284.728516,141.235611 284.536469,143.301071 
	C282.375610,143.577362 280.377045,143.832901 278.378479,144.088440 
	C278.390717,144.334137 278.402985,144.579819 278.415222,144.825516 
	C280.420654,145.026581 282.426086,145.227646 284.553497,145.440933 
	C284.774506,147.653564 284.968048,149.590942 285.161591,151.528320 
	C285.417419,151.511658 285.673248,151.494980 285.929047,151.478317 
	C286.156555,149.428925 286.384033,147.379532 286.606049,145.379562 
	C288.882629,145.183517 290.760437,145.021805 292.335144,144.886200 
	C290.342407,143.643433 288.325775,142.385742 286.294434,140.245285 
z"/>
<path fill="#EAEAEA" opacity="1.000000" stroke="none" 
	d="
M118.445442,347.985352 
	C125.443001,366.625885 138.000137,379.201233 157.717178,385.226440 
	C159.910950,388.614410 161.843170,389.361481 164.007401,386.103241 
	C221.335403,386.120148 278.663422,386.137024 336.490845,386.617004 
	C337.988098,387.552307 339.142242,388.617065 339.958832,388.401733 
	C345.821625,386.855835 351.789825,385.484253 357.397003,383.239288 
	C370.522888,377.984161 378.394379,367.514404 383.784668,354.942993 
	C384.247406,353.863739 383.434814,352.237610 383.214661,350.865540 
	C383.321320,350.424164 383.427948,349.982788 384.097473,349.228394 
	C387.023621,347.829376 388.405640,346.648529 385.037872,345.008698 
	C385.435608,338.044830 386.164612,331.081635 386.178070,324.117035 
	C386.275879,273.489563 386.155426,222.861664 386.272644,172.234283 
	C386.309326,156.394379 380.934631,142.976440 369.560303,131.534149 
	C371.758301,132.824387 374.527863,134.046371 376.441406,136.075577 
	C387.189514,147.473251 392.100281,161.085785 392.056488,176.799713 
	C391.908356,229.964767 392.211395,283.131653 391.916931,336.295502 
	C391.752838,365.916931 368.704315,391.052002 339.639160,392.958618 
	C329.536835,393.621307 319.394867,393.930115 309.269958,393.953796 
	C264.771210,394.057983 220.271637,394.109833 175.773285,393.940643 
	C159.425156,393.878479 144.781219,388.697754 132.778778,377.231628 
	C125.125839,369.920563 120.726646,360.627777 117.483650,350.736450 
	C117.244591,350.007294 117.858101,348.998596 118.445442,347.985352 
z"/>
<path fill="#F7F7F7" opacity="1.000000" stroke="none" 
	d="
M225.998459,336.655853 
	C214.329727,340.936493 202.816238,345.730286 190.939423,349.323059 
	C182.583527,351.850739 173.811096,351.228058 165.393173,348.281281 
	C147.851456,342.140564 140.624512,326.349670 147.597702,309.147644 
	C148.778229,306.235352 150.390350,303.498047 152.128357,300.117493 
	C155.355942,295.311432 158.198120,291.025116 161.173660,286.833466 
	C166.529984,279.288025 170.814865,271.188171 171.769043,261.909760 
	C173.412262,245.930801 170.286163,230.243744 168.044891,214.523804 
	C168.044891,214.523804 167.996933,214.082764 168.032196,213.896637 
	C168.067444,213.710510 168.091095,213.772842 168.091095,213.772842 
	C168.506882,208.144974 168.424942,202.426514 169.429550,196.905792 
	C172.765335,178.574173 186.143646,166.263290 206.523361,161.978622 
	C223.483765,158.412827 239.897263,161.861786 256.369324,165.381912 
	C269.196716,168.123138 282.103027,170.495255 295.755737,173.205109 
	C311.890564,176.209290 326.889923,179.998474 340.016968,189.623901 
	C349.066803,197.215103 355.122955,206.514999 359.307648,217.127197 
	C367.963104,245.053757 356.639923,274.151093 328.716064,289.435486 
	C327.667389,290.140656 327.143463,290.495453 326.292572,290.908936 
	C324.218628,291.918884 322.471680,292.870117 320.376190,293.885071 
	C317.302704,295.267456 314.577759,296.586121 311.504700,297.953522 
	C308.444122,299.303162 305.731659,300.604065 302.646912,301.927612 
	C299.720184,303.085571 297.153412,304.194061 294.613373,305.360748 
	C279.596344,312.258301 264.585510,319.169373 249.199097,326.130524 
	C245.527954,327.748779 242.230347,329.312378 238.571472,330.921448 
	C234.139633,332.863220 230.069046,334.759521 225.998459,336.655853 
M244.742508,309.967560 
	C245.496216,306.887634 246.249939,303.807709 247.744797,301.033630 
	C248.583633,302.780945 249.901199,304.461060 250.157990,306.290070 
	C250.638428,309.711975 251.077255,312.869232 255.509644,314.454407 
	C257.705261,313.491882 259.900879,312.529358 262.764404,311.073242 
	C263.217682,308.387329 263.670959,305.701447 264.940399,303.006073 
	C268.776276,302.008514 272.815002,301.481598 276.412659,299.931244 
	C291.262909,293.531708 302.353943,283.371460 307.287445,267.473114 
	C308.742340,262.784485 307.271301,260.004547 302.407349,258.533081 
	C295.933350,258.619019 289.459351,258.704926 282.182617,258.620422 
	C280.396423,258.493713 278.580200,258.101288 276.830750,258.299255 
	C273.805847,258.641510 270.822449,259.350067 267.361664,260.289673 
	C266.633057,261.214172 265.904449,262.138672 264.398560,263.036072 
	C263.474945,263.337463 262.401215,263.431763 261.652405,263.974396 
	C257.293182,267.133423 252.604095,267.886932 247.579437,266.010162 
	C234.623154,261.170776 231.592468,251.572708 234.939713,237.482025 
	C238.345459,223.145126 253.828934,219.185547 264.587891,229.086578 
	C268.149384,232.364029 272.173370,234.217514 277.185730,234.052887 
	C283.677368,233.839676 290.181335,234.011856 296.679932,233.998169 
	C306.531616,233.977432 310.159943,228.272003 306.115814,219.245041 
	C297.916107,200.942383 283.551453,190.681152 264.015594,186.091919 
	C263.443451,181.561554 265.704285,176.146118 259.427368,172.936844 
	C258.261322,172.899933 257.095245,172.863022 255.191833,172.874847 
	C251.266754,173.972153 250.587677,177.154114 250.280884,180.556747 
	C250.032074,183.316208 249.821579,186.079132 249.066925,188.716187 
	C248.709915,188.752716 248.352890,188.789246 247.417969,188.740585 
	C247.032776,188.791382 246.647598,188.842178 245.956436,188.038925 
	C245.868973,185.433350 245.934753,182.811279 245.656677,180.226196 
	C245.277100,176.697647 244.429443,173.355942 239.243149,172.666077 
	C237.827377,173.105072 236.411591,173.544052 234.322815,174.300125 
	C233.564072,176.220779 231.914047,178.286621 232.199234,180.037201 
	C233.506561,188.061920 230.978745,193.455978 222.262970,196.011826 
	C217.745651,199.963852 213.228333,203.915894 208.160797,208.224380 
	C200.178970,217.311035 197.050339,228.264404 195.204224,240.169189 
	C193.490967,242.667084 192.740570,245.057907 196.094070,247.650223 
	C196.088226,248.086594 196.082382,248.522980 195.470932,249.526016 
	C195.408051,252.472168 194.715897,255.569824 195.382904,258.340240 
	C200.245880,278.538452 212.171646,292.709381 231.977905,300.908630 
	C232.002182,303.024811 231.929672,305.147552 232.072006,307.255768 
	C232.324554,310.996460 233.673477,313.912476 238.767853,314.400787 
	C240.535843,313.115265 242.303833,311.829712 244.742508,309.967560 
z"/>
<path fill="#D14DEE" opacity="1.000000" stroke="none" 
	d="
M167.694321,214.651672 
	C170.286163,230.243744 173.412262,245.930801 171.769043,261.909760 
	C170.814865,271.188171 166.529984,279.288025 161.173660,286.833466 
	C158.198120,291.025116 155.355942,295.311432 152.197769,299.773438 
	C130.822876,272.907135 137.971771,233.355179 167.694321,214.651672 
z"/>
<path fill="#BC3DAF" opacity="1.000000" stroke="none" 
	d="
M226.338318,336.817810 
	C230.069046,334.759521 234.139633,332.863220 238.728561,331.242767 
	C248.977722,338.292419 259.709747,339.023865 271.017242,337.070923 
	C291.884247,333.466980 305.514801,321.325714 312.945587,301.851349 
	C313.337494,300.824341 312.251038,299.233246 311.852814,297.904785 
	C314.577759,296.586121 317.302704,295.267456 320.694122,294.135803 
	C321.508423,295.601990 322.018036,296.962860 321.750580,298.148407 
	C316.466400,321.570587 297.208313,339.970642 273.063599,344.157654 
	C268.903870,344.879028 263.831757,343.788788 260.849487,348.303741 
	C249.459061,344.529083 238.068619,340.754425 226.338318,336.817810 
z"/>
<path fill="#E34FE9" opacity="1.000000" stroke="none" 
	d="
M339.830139,189.364334 
	C326.889923,179.998474 311.890564,176.209290 296.168304,173.204193 
	C308.408661,168.608246 321.301605,165.041595 334.721680,167.019806 
	C341.270935,167.985214 347.500122,171.122009 353.777435,173.746216 
	C349.063812,179.265762 344.446991,184.315048 339.830139,189.364334 
z"/>
<path fill="#E94EE7" opacity="1.000000" stroke="none" 
	d="
M340.016968,189.623901 
	C344.446991,184.315048 349.063812,179.265762 353.979553,174.033081 
	C367.288330,182.280090 370.809814,196.839752 363.252838,211.148102 
	C362.252960,213.041214 361.020416,214.811447 359.601654,216.882904 
	C355.122955,206.514999 349.066803,197.215103 340.016968,189.623901 
z"/>
<path fill="#D042BF" opacity="1.000000" stroke="none" 
	d="
M328.857666,299.009796 
	C331.779755,331.258118 308.851807,353.017639 274.561676,349.974487 
	C278.689178,347.957672 283.007416,346.564453 287.165131,344.794250 
	C296.436951,340.846710 305.306763,335.731537 311.281799,327.687500 
	C316.839722,320.205017 320.502899,311.325500 325.145203,303.143311 
	C326.037933,301.569855 327.602844,300.377808 328.857666,299.009796 
z"/>
<path fill="#C740B7" opacity="1.000000" stroke="none" 
	d="
M328.921692,298.567871 
	C327.602844,300.377808 326.037933,301.569855 325.145203,303.143311 
	C320.502899,311.325500 316.839722,320.205017 311.281799,327.687500 
	C305.306763,335.731537 296.436951,340.846710 287.165131,344.794250 
	C283.007416,346.564453 278.689178,347.957672 274.187805,349.822144 
	C269.767120,349.696228 265.602509,349.270142 261.143677,348.573914 
	C263.831757,343.788788 268.903870,344.879028 273.063599,344.157654 
	C297.208313,339.970642 316.466400,321.570587 321.750580,298.148407 
	C322.018036,296.962860 321.508423,295.601990 321.042664,294.072052 
	C322.471680,292.870117 324.218628,291.918884 326.664490,290.952759 
	C327.859161,290.955475 328.354980,290.973083 328.850769,290.990723 
	C328.895752,293.369141 328.940735,295.747559 328.921692,298.567871 
z"/>
<path fill="#DCDCDC" opacity="1.000000" stroke="none" 
	d="
M383.036102,351.126862 
	C383.434814,352.237610 384.247406,353.863739 383.784668,354.942993 
	C378.394379,367.514404 370.522888,377.984161 357.397003,383.239288 
	C351.789825,385.484253 345.821625,386.855835 339.958832,388.401733 
	C339.142242,388.617065 337.988098,387.552307 336.949921,386.667389 
	C358.810516,383.310272 374.291870,371.906067 383.036102,351.126862 
z"/>
<path fill="#C04BF9" opacity="1.000000" stroke="none" 
	d="
M138.047760,196.712952 
	C137.973709,197.961502 137.900909,198.774948 137.828110,199.588394 
	C137.520081,199.636703 137.212036,199.685013 136.904007,199.733322 
	C136.627808,197.842148 136.351624,195.950958 136.015305,193.648117 
	C134.096588,193.413589 132.086731,193.167923 130.076859,192.922241 
	C130.070099,192.661163 130.063339,192.400101 130.056580,192.139023 
	C131.901031,191.927307 133.745499,191.715607 135.976288,191.459549 
	C136.226913,189.534302 136.489685,187.515808 136.752457,185.497314 
	C137.049225,185.465958 137.345993,185.434601 137.642776,185.403244 
	C137.867035,187.298676 138.091309,189.194107 138.353424,191.409378 
	C140.334900,191.625839 142.392578,191.850632 144.660019,192.098328 
	C143.119751,194.951065 137.533310,190.730621 138.047760,196.712952 
z"/>
<path fill="#BC3DAF" opacity="1.000000" stroke="none" 
	d="
M357.013428,317.451965 
	C357.013428,321.523071 357.013428,325.594177 357.013428,329.665283 
	C356.366211,329.701782 355.718964,329.738281 355.071747,329.774811 
	C355.071747,325.907349 355.071747,322.039856 355.060913,317.296936 
	C355.029449,316.134766 355.008789,315.848022 354.988098,315.561310 
	C354.988098,311.451233 354.988098,307.341187 354.988098,303.231110 
	C355.675110,303.233337 356.362152,303.235535 357.049164,303.237762 
	C357.049164,307.017883 357.049164,310.797974 357.001526,315.510986 
	C356.973724,316.779938 356.993561,317.115936 357.013428,317.451965 
z"/>
<path fill="#C04BF9" opacity="1.000000" stroke="none" 
	d="
M286.301788,140.686676 
	C288.325775,142.385742 290.342407,143.643433 292.335144,144.886200 
	C290.760437,145.021805 288.882629,145.183517 286.606049,145.379562 
	C286.384033,147.379532 286.156555,149.428925 285.929047,151.478317 
	C285.673248,151.494980 285.417419,151.511658 285.161591,151.528320 
	C284.968048,149.590942 284.774506,147.653564 284.553497,145.440933 
	C282.426086,145.227646 280.420654,145.026581 278.415222,144.825516 
	C278.402985,144.579819 278.390717,144.334137 278.378479,144.088440 
	C280.377045,143.832901 282.375610,143.577362 284.536469,143.301071 
	C284.728516,141.235611 284.908600,139.298874 285.088684,137.362137 
	C285.296051,137.335678 285.503418,137.309219 285.710815,137.282761 
	C285.905365,138.270264 286.099884,139.257767 286.301788,140.686676 
z"/>
<path fill="#DCDCDC" opacity="1.000000" stroke="none" 
	d="
M163.652740,385.963928 
	C161.843170,389.361481 159.910950,388.614410 158.048859,385.396301 
	C159.764023,385.295837 161.531052,385.560211 163.652740,385.963928 
z"/>
<path fill="#C04BF9" opacity="1.000000" stroke="none" 
	d="
M357.464722,317.337463 
	C356.993561,317.115936 356.973724,316.779938 356.991150,315.939941 
	C361.098724,315.435974 365.169067,315.435974 369.239380,315.435974 
	C369.245148,316.031616 369.250916,316.627289 369.256683,317.222931 
	C365.476471,317.222931 361.696259,317.222931 357.464722,317.337463 
z"/>
<path fill="#C04BF9" opacity="1.000000" stroke="none" 
	d="
M354.526459,315.621155 
	C355.008789,315.848022 355.029449,316.134766 355.024780,316.852417 
	C351.100494,317.283325 347.201477,317.283325 343.302490,317.283325 
	C343.300140,316.749237 343.297821,316.215118 343.295471,315.681030 
	C346.885254,315.681030 350.475037,315.681030 354.526459,315.621155 
z"/>
<path fill="#DCDCDC" opacity="1.000000" stroke="none" 
	d="
M384.856018,345.306580 
	C388.405640,346.648529 387.023621,347.829376 384.308777,348.955475 
	C384.196228,347.865204 384.435211,346.734863 384.856018,345.306580 
z"/>
<path fill="#D042BF" opacity="1.000000" stroke="none" 
	d="
M328.896912,290.636108 
	C328.354980,290.973083 327.859161,290.955475 326.991455,290.894043 
	C327.143463,290.495453 327.667389,290.140656 328.498627,289.682678 
	C328.851685,289.813446 328.897369,290.047455 328.896912,290.636108 
z"/>
<path fill="#D14DEE" opacity="1.000000" stroke="none" 
	d="
M167.989990,213.597946 
	C168.091095,213.772842 168.067444,213.710510 168.078522,213.679718 
	C167.980377,213.725525 167.861450,213.872177 167.764648,213.858795 
	C167.669662,213.845688 167.597168,213.669830 167.514801,213.565399 
	C167.639496,213.517944 167.764175,213.470505 167.989990,213.597946 
z"/>
<path fill="#E34FE9" opacity="1.000000" stroke="none" 
	d="
M222.916168,195.779480 
	C230.978745,193.455978 233.506561,188.061920 232.199234,180.037201 
	C231.914047,178.286621 233.564072,176.220779 235.000961,174.339981 
	C236.093552,177.717484 236.950867,181.069473 236.843384,184.390228 
	C236.444046,196.729614 235.727280,209.058701 234.950424,221.653259 
	C223.169174,231.759567 224.801193,257.413147 235.201538,264.185242 
	C236.316086,265.247528 237.265015,266.048004 237.886627,267.140625 
	C237.559326,276.753265 237.559326,286.073822 237.559326,295.774597 
	C235.209290,295.380798 234.105942,295.195892 232.765350,295.007690 
	C232.528122,295.004364 232.053650,295.003662 231.791168,294.777130 
	C228.667160,293.098877 225.805664,291.647156 222.961609,289.754669 
	C223.319366,283.535767 223.904877,277.759674 223.953156,271.979095 
	C224.087875,255.850586 224.123672,239.718903 223.952332,223.591080 
	C223.853806,214.317917 223.277451,205.049850 222.916168,195.779480 
z"/>
<path fill="#E94EE7" opacity="1.000000" stroke="none" 
	d="
M222.589569,195.895660 
	C223.277451,205.049850 223.853806,214.317917 223.952332,223.591080 
	C224.123672,239.718903 224.087875,255.850586 223.953156,271.979095 
	C223.904877,277.759674 223.319366,283.535767 222.612305,289.694611 
	C217.705032,286.091675 213.164490,282.108032 209.010818,278.050354 
	C210.598190,274.367279 212.749374,270.780731 212.835236,267.145355 
	C213.214493,251.087418 213.261475,235.007950 212.803986,218.954102 
	C212.697662,215.222870 210.140488,211.561462 208.711014,207.867935 
	C213.228333,203.915894 217.745651,199.963852 222.589569,195.895660 
z"/>
<path fill="#F050E3" opacity="1.000000" stroke="none" 
	d="
M208.435913,208.046158 
	C210.140488,211.561462 212.697662,215.222870 212.803986,218.954102 
	C213.261475,235.007950 213.214493,251.087418 212.835236,267.145355 
	C212.749374,270.780731 210.598190,274.367279 208.749100,277.866150 
	C207.375885,276.856873 206.635605,275.969879 205.929108,275.056732 
	C199.978195,267.365448 197.792648,258.250610 196.076523,248.959351 
	C196.082382,248.522980 196.088226,248.086594 196.083786,246.892426 
	C196.029327,244.087906 195.985138,242.041168 195.940964,239.994431 
	C197.050339,228.264404 200.178970,217.311035 208.435913,208.046158 
z"/>
<path fill="#EEEDEF" opacity="1.000000" stroke="none" 
	d="
M238.213928,266.848511 
	C237.265015,266.048004 236.316086,265.247528 235.185394,263.810059 
	C231.522049,254.606110 229.040482,246.285278 231.678726,236.552704 
	C235.031113,224.185638 250.075211,216.380661 261.847717,222.499802 
	C263.123199,223.162781 264.554871,223.525314 266.181580,224.236481 
	C267.963959,225.616608 269.478790,226.787460 271.056580,228.326080 
	C272.143585,229.428101 273.131744,230.737534 274.197418,230.804001 
	C281.544952,231.262360 288.915314,231.736221 296.262726,231.558624 
	C298.205383,231.511642 300.093292,229.199661 302.248474,227.706451 
	C299.857849,214.278137 292.515564,204.412369 280.939758,197.154968 
	C275.486511,194.679184 270.241455,192.450806 264.791443,190.128845 
	C264.586517,190.035248 264.144073,189.949890 264.089294,189.580765 
	C264.068115,188.469040 264.101715,187.726456 264.135284,186.983856 
	C283.551453,190.681152 297.916107,200.942383 306.115814,219.245041 
	C310.159943,228.272003 306.531616,233.977432 296.679932,233.998169 
	C290.181335,234.011856 283.677368,233.839676 277.185730,234.052887 
	C272.173370,234.217514 268.149384,232.364029 264.587891,229.086578 
	C253.828934,219.185547 238.345459,223.145126 234.939713,237.482025 
	C231.592468,251.572708 234.623154,261.170776 247.579437,266.010162 
	C252.604095,267.886932 257.293182,267.133423 261.652405,263.974396 
	C262.401215,263.431763 263.474945,263.337463 264.643036,263.363190 
	C261.257965,265.808868 257.628418,267.927429 253.578308,269.949829 
	C248.176468,268.851929 243.195190,267.850220 238.213928,266.848511 
z"/>
<path fill="#AB38A0" opacity="1.000000" stroke="none" 
	d="
M311.504700,297.953491 
	C312.251038,299.233246 313.337494,300.824341 312.945587,301.851349 
	C305.514801,321.325714 291.884247,333.466980 271.017242,337.070923 
	C259.709747,339.023865 248.977722,338.292419 239.089813,331.197327 
	C242.230347,329.312378 245.527954,327.748779 249.364166,326.554047 
	C252.225327,327.948486 254.481476,329.651398 256.881531,329.886688 
	C269.789703,331.152069 281.587463,327.837341 291.588074,319.547943 
	C297.113159,314.968262 302.944305,310.193481 303.019226,301.904968 
	C305.731659,300.604065 308.444122,299.303162 311.504700,297.953491 
z"/>
<path fill="#9A3291" opacity="1.000000" stroke="none" 
	d="
M302.646912,301.927612 
	C302.944305,310.193481 297.113159,314.968262 291.588074,319.547943 
	C281.587463,327.837341 269.789703,331.152069 256.881531,329.886688 
	C254.481476,329.651398 252.225327,327.948486 249.737686,326.499420 
	C264.585510,319.169373 279.596344,312.258301 294.613373,305.360748 
	C297.153412,304.194061 299.720184,303.085571 302.646912,301.927612 
z"/>
<path fill="#D14DEE" opacity="1.000000" stroke="none" 
	d="
M264.144073,189.949890 
	C264.144073,189.949890 264.586517,190.035248 264.791290,190.525543 
	C262.878693,199.275833 262.086609,207.539780 264.318573,215.958679 
	C264.521362,216.723633 262.702026,218.024673 261.465759,218.999481 
	C256.742554,218.041046 252.375305,217.159897 248.006134,215.792618 
	C248.001450,206.479584 247.998672,197.652679 247.995880,188.825775 
	C248.352890,188.789246 248.709915,188.752716 249.750519,188.796478 
	C253.620544,188.499359 255.283371,187.075897 255.171494,183.496643 
	C255.060654,179.951157 255.648041,176.383865 255.929199,172.826126 
	C257.095245,172.863022 258.261322,172.899933 259.710205,173.488922 
	C259.662628,177.249527 259.440582,180.473877 258.974670,183.662598 
	C258.376404,187.757065 260.088104,189.772034 264.144073,189.949890 
z"/>
<path fill="#D14DEE" opacity="1.000000" stroke="none" 
	d="
M253.998901,270.046021 
	C257.628418,267.927429 261.257965,265.808868 265.031677,263.376770 
	C265.904449,262.138672 266.633057,261.214172 267.943359,260.285645 
	C268.684814,263.544037 268.856384,266.805908 269.002075,270.068939 
	C269.361816,278.124634 269.709686,286.180878 269.802460,294.457214 
	C267.755859,295.143036 265.969147,295.608521 263.790131,296.089386 
	C261.598969,296.408051 259.800079,296.711365 257.591827,297.008179 
	C256.103546,295.926178 254.125381,294.879333 254.089905,293.770416 
	C253.837234,285.869385 253.981171,277.955688 253.998901,270.046021 
z"/>
<path fill="#D94CED" opacity="1.000000" stroke="none" 
	d="
M247.706924,188.783173 
	C247.998672,197.652679 248.001450,206.479584 247.666931,215.926147 
	C243.263000,218.161087 239.196350,219.776367 235.129700,221.391663 
	C235.727280,209.058701 236.444046,196.729614 236.843384,184.390228 
	C236.950867,181.069473 236.093552,177.717484 235.337463,174.181427 
	C236.411591,173.544052 237.827377,173.105072 239.624054,173.231598 
	C240.004944,178.710754 240.004944,183.624390 240.004944,188.892975 
	C241.999405,188.892975 244.130905,188.892975 246.262405,188.892975 
	C246.647598,188.842178 247.032776,188.791382 247.706924,188.783173 
z"/>
<path fill="#C851F5" opacity="1.000000" stroke="none" 
	d="
M270.062347,294.236877 
	C269.709686,286.180878 269.361816,278.124634 269.002075,270.068939 
	C268.856384,266.805908 268.684814,263.544037 268.173340,260.093292 
	C270.822449,259.350067 273.805847,258.641510 276.830750,258.299255 
	C278.580200,258.101288 280.396423,258.493713 282.586670,259.122986 
	C282.495300,261.151520 282.152374,262.748749 281.478668,264.191437 
	C278.137543,271.346039 279.673126,280.798096 284.929260,286.331299 
	C279.847656,289.157654 274.954987,291.697266 270.062347,294.236877 
z"/>
<path fill="#C04BF9" opacity="1.000000" stroke="none" 
	d="
M285.118256,286.044586 
	C279.673126,280.798096 278.137543,271.346039 281.478668,264.191437 
	C282.152374,262.748749 282.495300,261.151520 282.988037,259.208191 
	C289.459351,258.704926 295.933350,258.619019 302.540131,259.099243 
	C302.309723,261.081818 301.946533,262.498260 301.380310,264.169434 
	C297.768677,273.075256 292.607941,280.424866 285.118256,286.044586 
z"/>
<path fill="#EEEDEF" opacity="1.000000" stroke="none" 
	d="
M195.773727,249.242676 
	C197.792648,258.250610 199.978195,267.365448 205.929108,275.056732 
	C206.635605,275.969879 207.375885,276.856873 208.362228,277.940186 
	C213.164490,282.108032 217.705032,286.091675 222.594879,290.135376 
	C225.805664,291.647156 228.667160,293.098877 231.797302,295.022583 
	C232.065933,295.494598 232.193466,295.968933 232.131897,296.343567 
	C232.120834,297.472076 232.171341,298.225952 232.132050,299.239563 
	C231.979263,299.671326 231.916275,299.843384 231.853287,300.015411 
	C212.171646,292.709381 200.245880,278.538452 195.382904,258.340240 
	C194.715897,255.569824 195.408051,252.472168 195.773727,249.242676 
z"/>
<path fill="#EEEDEF" opacity="1.000000" stroke="none" 
	d="
M301.583344,263.914673 
	C301.946533,262.498260 302.309723,261.081818 302.829163,259.331268 
	C307.271301,260.004547 308.742340,262.784485 307.287445,267.473114 
	C302.353943,283.371460 291.262909,293.531708 276.412659,299.931244 
	C272.815002,301.481598 268.776276,302.008514 264.467529,302.640198 
	C264.035858,301.525574 264.077087,300.776825 264.512695,300.016479 
	C271.599823,297.333923 278.654785,295.313416 284.898651,291.836487 
	C293.810608,286.873810 299.707275,278.862061 303.319031,269.305603 
	C304.102753,267.231842 305.325348,264.682831 301.583344,263.914673 
z"/>
<path fill="#C851F5" opacity="1.000000" stroke="none" 
	d="
M246.109421,188.465942 
	C244.130905,188.892975 241.999405,188.892975 240.004944,188.892975 
	C240.004944,183.624390 240.004944,178.710754 240.007736,173.317001 
	C244.429443,173.355942 245.277100,176.697647 245.656677,180.226196 
	C245.934753,182.811279 245.868973,185.433350 246.109421,188.465942 
z"/>
<path fill="#E94EE7" opacity="1.000000" stroke="none" 
	d="
M255.560516,172.850494 
	C255.648041,176.383865 255.060654,179.951157 255.171494,183.496643 
	C255.283371,187.075897 253.620544,188.499359 250.014099,188.858643 
	C249.821579,186.079132 250.032074,183.316208 250.280884,180.556747 
	C250.587677,177.154114 251.266754,173.972153 255.560516,172.850494 
z"/>
<path fill="#E94EE7" opacity="1.000000" stroke="none" 
	d="
M231.915588,300.462036 
	C231.916275,299.843384 231.979263,299.671326 232.458817,299.288635 
	C234.578995,300.386353 236.282623,301.694672 237.988342,303.463745 
	C237.988678,307.377655 237.986923,310.830780 237.985168,314.283936 
	C233.673477,313.912476 232.324554,310.996460 232.072006,307.255768 
	C231.929672,305.147552 232.002182,303.024811 231.915588,300.462036 
z"/>
<path fill="#D14DEE" opacity="1.000000" stroke="none" 
	d="
M262.096497,311.566803 
	C259.900879,312.529358 257.705261,313.491882 255.406097,313.884064 
	C255.205795,310.210236 255.109039,307.106781 255.323563,303.963867 
	C256.424683,303.278687 257.214508,302.632874 258.322327,302.150299 
	C262.346466,304.443970 262.085144,308.056305 262.096497,311.566803 
z"/>
<path fill="#C851F5" opacity="1.000000" stroke="none" 
	d="
M264.089294,189.580765 
	C260.088104,189.772034 258.376404,187.757065 258.974670,183.662598 
	C259.440582,180.473877 259.662628,177.249527 259.993774,173.630920 
	C265.704285,176.146118 263.443451,181.561554 264.075439,186.537888 
	C264.101715,187.726456 264.068115,188.469040 264.089294,189.580765 
z"/>
<path fill="#E34FE9" opacity="1.000000" stroke="none" 
	d="
M255.012283,304.003296 
	C255.109039,307.106781 255.205795,310.210236 255.150574,313.664734 
	C251.077255,312.869232 250.638428,309.711975 250.157990,306.290070 
	C249.901199,304.461060 248.583633,302.780945 247.371643,300.593964 
	C246.999176,299.771240 246.999863,299.388214 247.332001,298.950714 
	C248.568695,298.407043 249.473907,297.917786 249.479279,297.914886 
	C251.619705,300.270172 253.315994,302.136749 255.012283,304.003296 
z"/>
<path fill="#D14DEE" opacity="1.000000" stroke="none" 
	d="
M238.376511,314.342346 
	C237.986923,310.830780 237.988678,307.377655 238.233154,303.308502 
	C238.983322,302.125092 239.490753,301.557678 240.321564,301.156189 
	C244.895065,303.241272 243.914932,307.103973 244.071808,310.544159 
	C242.303833,311.829712 240.535843,313.115265 238.376511,314.342346 
z"/>
<path fill="#C04BF9" opacity="1.000000" stroke="none" 
	d="
M262.430450,311.320007 
	C262.085144,308.056305 262.346466,304.443970 258.321594,301.736053 
	C258.002319,299.777252 258.001770,298.395966 258.001221,297.014648 
	C259.800079,296.711365 261.598969,296.408051 263.724243,296.480774 
	C264.073212,297.913849 264.095764,298.970978 264.118317,300.028076 
	C264.077087,300.776825 264.035858,301.525574 264.059418,302.644928 
	C263.670959,305.701447 263.217682,308.387329 262.430450,311.320007 
z"/>
<path fill="#C04BF9" opacity="1.000000" stroke="none" 
	d="
M244.407166,310.255859 
	C243.914932,307.103973 244.895065,303.241272 240.323898,300.759888 
	C241.308746,293.775421 244.385468,297.744873 247.000534,299.005157 
	C246.999863,299.388214 246.999176,299.771240 247.001068,300.441040 
	C246.249939,303.807709 245.496216,306.887634 244.407166,310.255859 
z"/>
<path fill="#EEEDEF" opacity="1.000000" stroke="none" 
	d="
M195.572601,240.081818 
	C195.985138,242.041168 196.029327,244.087906 196.019043,246.570709 
	C192.740570,245.057907 193.490967,242.667084 195.572601,240.081818 
z"/>
<path fill="#D94CED" opacity="1.000000" stroke="none" 
	d="
M247.332001,298.950714 
	C244.385468,297.744873 241.308746,293.775421 240.000519,300.593933 
	C239.490753,301.557678 238.983322,302.125092 238.231064,302.847778 
	C236.282623,301.694672 234.578995,300.386353 232.548615,299.028931 
	C232.171341,298.225952 232.120834,297.472076 232.313431,296.228333 
	C232.775162,295.538849 232.923843,295.296356 233.002579,295.010986 
	C234.105942,295.195892 235.209290,295.380798 237.559326,295.774597 
	C237.559326,286.073822 237.559326,276.753265 237.886627,267.140625 
	C243.195190,267.850220 248.176468,268.851929 253.578323,269.949829 
	C253.981171,277.955688 253.837234,285.869385 254.089905,293.770416 
	C254.125381,294.879333 256.103546,295.926178 257.591827,297.008179 
	C258.001770,298.395966 258.002319,299.777252 258.003601,301.572815 
	C257.214508,302.632874 256.424683,303.278687 255.323563,303.963867 
	C253.315994,302.136749 251.619705,300.270172 249.479279,297.914886 
	C249.473907,297.917786 248.568695,298.407043 247.332001,298.950714 
z"/>
<path fill="#E3E0E4" opacity="1.000000" stroke="none" 
	d="
M234.950424,221.653259 
	C239.196350,219.776367 243.263000,218.161087 247.668854,216.412277 
	C252.375305,217.159897 256.742554,218.041046 261.648071,219.270386 
	C263.428925,221.088135 264.671509,222.557678 265.914093,224.027206 
	C264.554871,223.525314 263.123199,223.162781 261.847717,222.499802 
	C250.075211,216.380661 235.031113,224.185638 231.678726,236.552704 
	C229.040482,246.285278 231.522049,254.606110 235.019775,263.548279 
	C224.801193,257.413147 223.169174,231.759567 234.950424,221.653259 
z"/>
<path fill="#E94EE7" opacity="1.000000" stroke="none" 
	d="
M232.765350,295.007690 
	C232.923843,295.296356 232.775162,295.538849 232.375000,295.853699 
	C232.193466,295.968933 232.065933,295.494598 232.059784,295.249146 
	C232.053650,295.003662 232.528122,295.004364 232.765350,295.007690 
z"/>
<path fill="#C851F5" opacity="1.000000" stroke="none" 
	d="
M266.181580,224.236481 
	C264.671509,222.557678 263.428925,221.088135 262.004028,219.347687 
	C262.702026,218.024673 264.521362,216.723633 264.318573,215.958679 
	C262.086609,207.539780 262.878693,199.275833 264.996216,190.619141 
	C270.241455,192.450806 275.486511,194.679184 280.901855,197.612274 
	C280.381409,203.908463 279.249176,209.491806 279.146332,215.094040 
	C279.070435,219.224701 280.338501,223.380051 280.564697,227.634491 
	C277.078979,227.815842 274.036285,227.887085 270.993622,227.958328 
	C269.478790,226.787460 267.963959,225.616608 266.181580,224.236481 
z"/>
<path fill="#C04BF9" opacity="1.000000" stroke="none" 
	d="
M281.007782,227.524399 
	C280.338501,223.380051 279.070435,219.224701 279.146332,215.094040 
	C279.249176,209.491806 280.381409,203.908463 281.110046,197.859711 
	C292.515564,204.412369 299.857849,214.278137 301.781281,227.656128 
	C294.383911,227.726166 287.695862,227.625275 281.007782,227.524399 
z"/>
<path fill="#EAEAEA" opacity="1.000000" stroke="none" 
	d="
M280.564697,227.634491 
	C287.695862,227.625275 294.383911,227.726166 301.539185,227.877380 
	C300.093292,229.199661 298.205383,231.511642 296.262726,231.558624 
	C288.915314,231.736221 281.544952,231.262360 274.197418,230.804001 
	C273.131744,230.737534 272.143585,229.428101 271.056580,228.326080 
	C274.036285,227.887085 277.078979,227.815842 280.564697,227.634491 
z"/>
<path fill="#E3E0E4" opacity="1.000000" stroke="none" 
	d="
M264.512695,300.016479 
	C264.095764,298.970978 264.073212,297.913849 264.116547,296.465393 
	C265.969147,295.608521 267.755859,295.143036 269.802460,294.457214 
	C274.954987,291.697266 279.847656,289.157654 284.929260,286.331299 
	C292.607941,280.424866 297.768677,273.075256 301.380310,264.169434 
	C305.325348,264.682831 304.102753,267.231842 303.319031,269.305603 
	C299.707275,278.862061 293.810608,286.873810 284.898651,291.836487 
	C278.654785,295.313416 271.599823,297.333923 264.512695,300.016479 
z"/>
</svg>